<svg width="10" height="22" viewBox="0 0 10 22" fill="none" xmlns="http://www.w3.org/2000/svg">
<path d="M8.56999 19.7812C8.56999 20.3266 6.96939 20.7687 4.99495 20.7687C3.02052 20.7687 1.41992 20.3266 1.41992 19.7812C1.41992 19.2359 3.02052 18.7938 4.99495 18.7938C6.96939 18.7938 8.56999 19.2359 8.56999 19.7812Z" fill="#A0D6ED"/>
<path fill-rule="evenodd" clip-rule="evenodd" d="M7.61602 20.9667C6.93028 21.1561 6.00368 21.2687 4.99463 21.2687C3.98558 21.2687 3.05898 21.1561 2.37324 20.9667C2.03371 20.8729 1.73018 20.7542 1.50138 20.6048C1.38721 20.5302 1.27198 20.4355 1.18083 20.3125C1.0874 20.1864 1.00293 20.0065 1.00293 19.7812C1.00293 19.556 1.0874 19.3761 1.18083 19.25C1.27198 19.127 1.38721 19.0323 1.50138 18.9577C1.73018 18.8083 2.03371 18.6895 2.37324 18.5958C3.05898 18.4064 3.98558 18.2938 4.99463 18.2938C6.00368 18.2938 6.93028 18.4064 7.61602 18.5958C7.95555 18.6895 8.25908 18.8083 8.48788 18.9577C8.60205 19.0323 8.71728 19.127 8.80842 19.25C8.90185 19.3761 8.98633 19.556 8.98633 19.7812C8.98633 20.0065 8.90185 20.1864 8.80842 20.3125C8.71728 20.4355 8.60205 20.5302 8.48788 20.6048C8.25908 20.7542 7.95555 20.8729 7.61602 20.9667ZM4.99463 20.7687C6.96906 20.7687 8.56966 20.3266 8.56966 19.7812C8.56966 19.2359 6.96906 18.7938 4.99463 18.7938C3.02019 18.7938 1.4196 19.2359 1.4196 19.7812C1.4196 20.3266 3.02019 20.7687 4.99463 20.7687Z" fill="#377894"/>
<path d="M5.78689 19.6894C5.78689 20.0007 4.87337 20.253 3.74647 20.253C2.61958 20.253 1.70605 20.0007 1.70605 19.6894C1.70605 19.3782 2.61958 19.1259 3.74647 19.1259C4.87337 19.1259 5.78689 19.3782 5.78689 19.6894Z" fill="#D7F3FF"/>
<path d="M4.67383 10.7695C4.67383 10.5538 4.81957 10.3789 4.99935 10.3789C5.17913 10.3789 5.32487 10.5538 5.32487 10.7695V19.1406C5.32487 19.3563 5.17913 19.5312 4.99935 19.5312C4.81957 19.5312 4.67383 19.3563 4.67383 19.1406V10.7695Z" fill="#A0D6ED"/>
<path fill-rule="evenodd" clip-rule="evenodd" d="M5.74219 10.7695V19.1406C5.74219 19.6324 5.4099 20.0312 5 20.0312C4.5901 20.0312 4.25781 19.6324 4.25781 19.1406V10.7695C4.25781 10.2777 4.5901 9.87891 5 9.87891C5.4099 9.87891 5.74219 10.2777 5.74219 10.7695ZM5 10.3789C4.82022 10.3789 4.67448 10.5538 4.67448 10.7695V19.1406C4.67448 19.3563 4.82022 19.5312 5 19.5312C5.17978 19.5312 5.32552 19.3563 5.32552 19.1406V10.7695C5.32552 10.5538 5.17978 10.3789 5 10.3789Z" fill="#649DB6"/>
<path fill-rule="evenodd" clip-rule="evenodd" d="M4.8431 13.7656C4.95816 13.7656 5.05143 13.8776 5.05143 14.0156V16.3594C5.05143 16.4974 4.95816 16.6094 4.8431 16.6094C4.72804 16.6094 4.63477 16.4974 4.63477 16.3594V14.0156C4.63477 13.8776 4.72804 13.7656 4.8431 13.7656Z" fill="#C8EFFF"/>
<path d="M1.40297 2.3125H8.58158L9.47266 8.61919C9.7552 9.98532 9.056 10.9831 7.93982 11.681C6.90389 12.3286 6.16222 12.4541 4.99228 12.4541C3.82234 12.4541 3.08816 12.3111 2.04474 11.681C1.2937 11.2274 0.223948 10.3291 0.511895 8.6192L1.40297 2.3125Z" fill="#BBE9FD"/>
<path fill-rule="evenodd" clip-rule="evenodd" d="M0.991889 2.22892C1.02586 1.98846 1.19945 1.8125 1.40269 1.8125H8.5813C8.78454 1.8125 8.95813 1.98846 8.99211 2.22892L9.88067 8.5178C10.0446 9.33113 9.91765 10.0588 9.57826 10.676C9.24578 11.2807 8.72461 11.7539 8.13206 12.1244C7.0181 12.8208 6.20429 12.9541 4.992 12.9541C3.77436 12.9541 2.97242 12.8011 1.85716 12.1276C1.46099 11.8884 0.942226 11.5105 0.561248 10.9308C0.168535 10.3333 -0.0660283 9.53662 0.101863 8.52815L0.991889 2.22892ZM0.511612 8.6192C0.223666 10.3291 1.29341 11.2274 2.04446 11.681C3.08788 12.3111 3.82206 12.4541 4.992 12.4541C6.16194 12.4541 6.90361 12.3286 7.93953 11.681C9.05572 10.9831 9.75491 9.98532 9.47238 8.61919L8.5813 2.3125H1.40269L0.511612 8.6192Z" fill="#6BB3D1"/>
<path d="M4.99228 12.454C6.16222 12.454 6.90389 12.3286 7.93982 11.6809C9.056 10.983 9.7552 9.98526 9.47266 8.61913L9.16908 6.47046H0.815484L0.511895 8.61914C0.223948 10.329 1.2937 11.2274 2.04474 11.6809C3.08816 12.311 3.82234 12.454 4.99228 12.454Z" fill="#99130C"/>
<path fill-rule="evenodd" clip-rule="evenodd" d="M9.16879 6.47046L9.47238 8.61913C9.75491 9.98526 9.05572 10.983 7.93953 11.6809C6.90361 12.3286 6.16194 12.454 4.992 12.454C3.82206 12.454 3.08788 12.311 2.04446 11.6809C1.29341 11.2274 0.223666 10.329 0.511612 8.61913L0.815201 6.47046H9.16879ZM0.101864 8.52808C-0.0660285 9.53656 0.168534 10.3332 0.561248 10.9308C0.942226 11.5105 1.46099 11.8883 1.85716 12.1275C2.97242 12.801 3.77436 12.954 4.992 12.954C6.20429 12.954 7.0181 12.8208 8.13206 12.1243C8.72461 11.7538 9.24578 11.2807 9.57826 10.676C9.91765 10.0587 10.0446 9.33107 9.88067 8.51774L9.5796 6.38688C9.54562 6.14642 9.37204 5.97046 9.16879 5.97046H0.815201C0.61196 5.97046 0.438372 6.14642 0.404397 6.38688L0.101864 8.52808Z" fill="#5B0501"/>
<path d="M3.47586 10.3484C3.47586 11.2391 2.84435 11.4455 2.14774 11.2234C1.45112 11.0013 0.845649 10.2391 0.774039 9.42653C0.702429 8.614 0.936789 7.80151 1.63993 7.98906C2.34306 8.17661 3.47586 9.45773 3.47586 10.3484Z" fill="#780A04"/>
<path d="M8.56999 2.21874C8.56999 2.76408 6.96939 3.20616 4.99495 3.20616C3.02052 3.20616 1.41992 2.76408 1.41992 2.21874C1.41992 1.67341 3.02052 1.23132 4.99495 1.23132C6.96939 1.23132 8.56999 1.67341 8.56999 2.21874Z" fill="#D7F3FF"/>
<path fill-rule="evenodd" clip-rule="evenodd" d="M7.61602 3.40421C6.93028 3.59362 6.00368 3.70616 4.99463 3.70616C3.98558 3.70616 3.05898 3.59362 2.37324 3.40421C2.03371 3.31044 1.73018 3.19168 1.50138 3.04228C1.38721 2.96772 1.27198 2.87298 1.18083 2.74996C1.0874 2.62385 1.00293 2.44402 1.00293 2.21874C1.00293 1.99346 1.0874 1.81363 1.18083 1.68753C1.27198 1.56451 1.38721 1.46977 1.50138 1.39521C1.73018 1.2458 2.03371 1.12705 2.37324 1.03327C3.05898 0.843871 3.98558 0.731323 4.99463 0.731323C6.00368 0.731323 6.93028 0.843871 7.61602 1.03327C7.95555 1.12705 8.25908 1.2458 8.48788 1.39521C8.60205 1.46977 8.71728 1.56451 8.80842 1.68753C8.90185 1.81363 8.98633 1.99346 8.98633 2.21874C8.98633 2.44402 8.90185 2.62385 8.80842 2.74996C8.71728 2.87298 8.60205 2.96772 8.48788 3.04228C8.25908 3.19168 7.95555 3.31044 7.61602 3.40421ZM4.99463 3.20616C6.96906 3.20616 8.56966 2.76408 8.56966 2.21874C8.56966 1.67341 6.96906 1.23132 4.99463 1.23132C3.02019 1.23132 1.4196 1.67341 1.4196 2.21874C1.4196 2.76408 3.02019 3.20616 4.99463 3.20616Z" fill="#6BB3D1"/>
<path fill-rule="evenodd" clip-rule="evenodd" d="M4.99905 1.69925C5.00083 1.5612 5.09554 1.45102 5.21059 1.45316C6.58163 1.47866 7.50272 1.88805 7.81496 2.11405C7.91348 2.18537 7.94518 2.33902 7.88575 2.45725C7.82632 2.57548 7.69828 2.61351 7.59975 2.5422C7.36512 2.37237 6.52058 1.97759 5.20413 1.9531C5.08908 1.95095 4.99727 1.8373 4.99905 1.69925Z" fill="white"/>
<path d="M8.61003 9.14148C8.61003 9.48666 8.37684 9.76648 8.08919 9.76648C7.80154 9.76648 7.56836 9.48666 7.56836 9.14148C7.56836 8.7963 7.80154 8.51648 8.08919 8.51648C8.37684 8.51648 8.61003 8.7963 8.61003 9.14148Z" fill="#E3160C"/>
<path d="M7.81543 10.618C7.81543 10.864 7.64929 11.0634 7.44434 11.0634C7.23939 11.0634 7.07324 10.864 7.07324 10.618C7.07324 10.3721 7.23939 10.1727 7.44434 10.1727C7.64929 10.1727 7.81543 10.3721 7.81543 10.618Z" fill="#E3160C"/>
<path d="M6.80632 10.4969C6.80632 10.6836 6.68025 10.8348 6.52474 10.8348C6.36923 10.8348 6.24316 10.6836 6.24316 10.4969C6.24316 10.3103 6.36923 10.1591 6.52474 10.1591C6.68025 10.1591 6.80632 10.3103 6.80632 10.4969Z" fill="#E3160C"/>
<path d="M7.85026 7.96179C7.85026 8.1484 7.72419 8.29968 7.56868 8.29968C7.41317 8.29968 7.28711 8.1484 7.28711 7.96179C7.28711 7.77518 7.41317 7.6239 7.56868 7.6239C7.72419 7.6239 7.85026 7.77518 7.85026 7.96179Z" fill="#E3160C"/>
<path d="M7.99837 6.87C7.99837 6.9811 7.92332 7.07117 7.83073 7.07117C7.73814 7.07117 7.66309 6.9811 7.66309 6.87C7.66309 6.75889 7.73814 6.66882 7.83073 6.66882C7.92332 6.66882 7.99837 6.75889 7.99837 6.87Z" fill="#E3160C"/>
<path d="M8.77767 6.31531C8.77767 6.42641 8.70261 6.51648 8.61003 6.51648C8.51744 6.51648 8.44238 6.42641 8.44238 6.31531C8.44238 6.2042 8.51744 6.11414 8.61003 6.11414C8.70261 6.11414 8.77767 6.2042 8.77767 6.31531Z" fill="#E3160C"/>
<path d="M6.14779 11.1161C6.14779 11.2272 6.07273 11.3173 5.98014 11.3173C5.88756 11.3173 5.8125 11.2272 5.8125 11.1161C5.8125 11.005 5.88756 10.9149 5.98014 10.9149C6.07273 10.9149 6.14779 11.005 6.14779 11.1161Z" fill="#E3160C"/>
<path d="M5.33529 11.7489C5.33529 11.86 5.26023 11.9501 5.16764 11.9501C5.07506 11.9501 5 11.86 5 11.7489C5 11.6378 5.07506 11.5477 5.16764 11.5477C5.26023 11.5477 5.33529 11.6378 5.33529 11.7489Z" fill="#E3160C"/>
<path d="M6.24349 9.76648C6.24349 9.87758 6.16843 9.96765 6.07585 9.96765C5.98326 9.96765 5.9082 9.87758 5.9082 9.76648C5.9082 9.65538 5.98326 9.56531 6.07585 9.56531C6.16843 9.56531 6.24349 9.65538 6.24349 9.76648Z" fill="#E3160C"/>
<path d="M6.94954 8.01257C6.94954 8.12368 6.87449 8.21375 6.7819 8.21375C6.68931 8.21375 6.61426 8.12368 6.61426 8.01257C6.61426 7.90147 6.68931 7.8114 6.7819 7.8114C6.87449 7.8114 6.94954 7.90147 6.94954 8.01257Z" fill="#E3160C"/>
<path d="M7.17773 9.14148C7.17773 9.38742 7.01159 9.58679 6.80664 9.58679C6.60169 9.58679 6.43555 9.38742 6.43555 9.14148C6.43555 8.89554 6.60169 8.69617 6.80664 8.69617C7.01159 8.69617 7.17773 8.89554 7.17773 9.14148Z" fill="#E3160C"/>
<path d="M8.98145 7.51648C8.98145 7.76242 8.8153 7.96179 8.61035 7.96179C8.4054 7.96179 8.23926 7.76242 8.23926 7.51648C8.23926 7.27054 8.4054 7.07117 8.61035 7.07117C8.8153 7.07117 8.98145 7.27054 8.98145 7.51648Z" fill="#E3160C"/>
<path d="M9.28743 8.82507C9.28743 8.95236 9.20145 9.05554 9.09538 9.05554C8.98931 9.05554 8.90332 8.95236 8.90332 8.82507C8.90332 8.69779 8.98931 8.5946 9.09538 8.5946C9.20145 8.5946 9.28743 8.69779 9.28743 8.82507Z" fill="#E3160C"/>
<path d="M8.6097 10.2665C8.6097 10.3938 8.52371 10.4969 8.41764 10.4969C8.31157 10.4969 8.22559 10.3938 8.22559 10.2665C8.22559 10.1392 8.31157 10.036 8.41764 10.036C8.52371 10.036 8.6097 10.1392 8.6097 10.2665Z" fill="#E3160C"/>
<path d="M6.80697 11.5477C6.80697 11.675 6.72098 11.7782 6.61491 11.7782C6.50884 11.7782 6.42285 11.675 6.42285 11.5477C6.42285 11.4204 6.50884 11.3173 6.61491 11.3173C6.72098 11.3173 6.80697 11.4204 6.80697 11.5477Z" fill="#E3160C"/>
<path d="M9.16667 6.49844C9.16667 7.13353 7.30264 7.64837 5.00325 7.64837C2.70387 7.64837 0.839844 7.13353 0.839844 6.49844C0.839844 5.86335 2.70387 5.34851 5.00325 5.34851C7.30264 5.34851 9.16667 5.86335 9.16667 6.49844Z" fill="#C12F28"/>
<path fill-rule="evenodd" clip-rule="evenodd" d="M8.04036 7.79882C7.24815 8.01763 6.17446 8.14837 5.00293 8.14837C3.8314 8.14837 2.75771 8.01763 1.96549 7.79882C1.57273 7.69034 1.22611 7.55408 0.96754 7.38523C0.838479 7.30095 0.71169 7.19601 0.612709 7.06241C0.511441 6.92572 0.422852 6.73494 0.422852 6.49844C0.422852 6.26194 0.511441 6.07116 0.612709 5.93447C0.71169 5.80087 0.838479 5.69593 0.96754 5.61165C1.22611 5.4428 1.57273 5.30654 1.96549 5.19806C2.75771 4.97925 3.8314 4.84851 5.00293 4.84851C6.17446 4.84851 7.24815 4.97925 8.04036 5.19806C8.43313 5.30654 8.77975 5.4428 9.03832 5.61165C9.16738 5.69593 9.29417 5.80087 9.39315 5.93447C9.49442 6.07116 9.58301 6.26194 9.58301 6.49844C9.58301 6.73494 9.49442 6.92572 9.39315 7.06241C9.29417 7.19601 9.16738 7.30095 9.03832 7.38523C8.77975 7.55408 8.43313 7.69034 8.04036 7.79882ZM5.00293 7.64837C7.30232 7.64837 9.16634 7.13353 9.16634 6.49844C9.16634 5.86335 7.30232 5.34851 5.00293 5.34851C2.70354 5.34851 0.839518 5.86335 0.839518 6.49844C0.839518 7.13353 2.70354 7.64837 5.00293 7.64837Z" fill="#6C0905"/>
<path d="M5.99609 6.6689C5.99609 7.03535 4.92053 7.33242 3.59375 7.33242C2.26697 7.33242 1.19141 7.03535 1.19141 6.6689C1.19141 6.30244 2.26697 6.00537 3.59375 6.00537C4.92053 6.00537 5.99609 6.30244 5.99609 6.6689Z" fill="#A91A13"/>
<path fill-rule="evenodd" clip-rule="evenodd" d="M5.78094 5.88648C5.79004 5.74885 5.8904 5.64612 6.0051 5.65705C6.65968 5.71939 7.74017 5.87709 8.39947 6.20674C8.50568 6.25985 8.55591 6.40622 8.51165 6.53367C8.4674 6.66112 8.34543 6.72139 8.23922 6.66828C7.64852 6.37293 6.63006 6.21814 5.97213 6.15548C5.85744 6.14456 5.77183 6.02412 5.78094 5.88648Z" fill="#F93F35"/>
</svg>
